<?xml version="1.0" encoding="utf-8"?>
<!-- Generator: Adobe Illustrator 23.1.0, SVG Export Plug-In . SVG Version: 6.00 Build 0)  -->
<svg version="1.1" id="Layer_1" xmlns="http://www.w3.org/2000/svg" xmlns:xlink="http://www.w3.org/1999/xlink" x="0px" y="0px"
	 viewBox="0 0 1200 1200" enable-background="new 0 0 1200 1200" xml:space="preserve">
<g>
	<path fill="#2D2D2D" d="M1039.159,668.293l55.543-175.015l46.505,9.003c-2.064-11.514-4.522-22.883-7.289-34.134l-41.105-7.968
		L986.262,321.815l-29.245-37.859l-61.738-126.273l21.392-7.275C827.76,87.671,719.539,50.73,602.889,50.151l11.354,17.909
		l-128.919,59.774l-214.157,59.32L254.38,172.31c-8.396,6.796-16.61,13.799-24.587,21.068l21.801,19.318l-60.076,167.155
		L74.238,554.488l-21.643-7.499c-1.893,19.803-2.817,39.882-2.55,60.231c1.188,90.223,24.174,175,63.668,249.621l21.13-35.675
		L289,892.426l128.314,160.884l-10.8,61.497c10.117,3.806,20.355,7.358,30.744,10.574l11.04-62.777
		c19.873-3.854,64.157-12.543,107.986-21.914c34.609-7.331,62.266-13.678,82.141-18.741c16.097-4.157,27.96-7.331,35.97-11.185
		l155.821,41.865c-6.247,24.194-10.402,41.723-12.497,52.503c109.542-47.267,200.461-129.074,259.356-231.532l-29.602-1.124
		L1039.159,668.293z M638.727,92.167l222.697,69.522l60.605,123.704l-78.213,40.353l-53.803,27.734l-216.805-66.801l-20.252-44.888
		l-40.881-90.983L638.727,92.167z M293.609,859.177l-151.135-69.9l-44.735-212.27l114.486-170.329l103.073,38.994l44.811,16.927
		l47.305,229.498L293.609,859.177z M522.352,712.953l-83.879-29.622l-46.7-226.324l173.2-139.271l212.722,65.593l7.935,39.219
		l36.273,179.624L650.968,758.369L522.352,712.953z M845.857,1023.612l-159.068-42.771c-2.721-39.22-12.243-157.105-15.492-197.609
		L843.44,625.975l163.981,52.067l8.236,202.672L845.857,1023.612z"/>
	<path fill="#FFFFFF" d="M289,892.426l-154.157-71.26l-21.13,35.675c62.526,118.133,166.71,210.537,292.8,257.966l10.8-61.497
		L289,892.426z"/>
	<path fill="#FFFFFF" d="M674.394,1010.765c-8.011,3.854-19.873,7.028-35.97,11.185c-19.875,5.063-47.532,11.41-82.141,18.741
		c-43.83,9.37-88.113,18.06-107.986,21.914l-11.04,62.777c53.67,16.613,110.77,25.331,169.981,24.552
		c74.78-0.985,145.844-16.91,210.48-44.8c2.096-10.781,6.251-28.309,12.497-52.503L674.394,1010.765z"/>
	<path fill="#FFFFFF" d="M843.44,625.975L671.297,783.231c3.249,40.504,12.77,158.389,15.492,197.609l159.068,42.771l169.8-142.898
		l-8.236-202.672L843.44,625.975z"/>
	<path fill="#FFFFFF" d="M1141.207,502.282l-46.505-9.003l-55.543,175.015l8.313,204.184l29.602,1.124
		c47.501-82.636,74.223-178.645,72.878-280.862C1149.544,561.88,1146.481,531.693,1141.207,502.282z"/>
	<path fill="#FFFFFF" d="M957.016,283.956l29.245,37.859l106.551,138.365l41.105,7.968
		c-32.135-130.612-110.776-242.611-217.247-317.741l-21.392,7.275L957.016,283.956z"/>
	<polygon fill="#FFFFFF" points="573.208,286.677 790.013,353.479 843.816,325.745 922.029,285.392 861.424,161.688 638.727,92.167 
		512.076,150.807 552.957,241.79 	"/>
	<path fill="#FFFFFF" d="M485.324,127.834L614.243,68.06l-11.354-17.909c-3.384-0.017-6.734-0.168-10.132-0.124
		C464.396,51.717,346.986,97.369,254.38,172.31l16.787,14.844L485.324,127.834z"/>
	<path fill="#FFFFFF" d="M191.519,379.852l60.076-167.155l-21.801-19.318C131.528,282.912,65.936,407.446,52.595,546.99
		l21.643,7.499L191.519,379.852z"/>
	<polygon fill="#FFFFFF" points="315.297,445.672 212.224,406.678 97.738,577.007 142.474,789.277 293.609,859.177 407.414,692.096 
		360.108,462.599 	"/>
	<polygon fill="#FFFFFF" points="785.63,422.548 777.695,383.328 564.973,317.735 391.773,457.007 438.473,683.331 522.352,712.953 
		650.968,758.369 821.902,602.172 	"/>
</g>
</svg>
